<?xml version="1.0" encoding="utf-8"?>
<!-- Generator: Adobe Illustrator 17.0.2, SVG Export Plug-In . SVG Version: 6.00 Build 0)  -->
<!DOCTYPE svg PUBLIC "-//W3C//DTD SVG 1.1//EN" "http://www.w3.org/Graphics/SVG/1.1/DTD/svg11.dtd">
<svg version="1.1" id="Layer_1" xmlns="http://www.w3.org/2000/svg" xmlns:xlink="http://www.w3.org/1999/xlink" x="0px" y="0px"
	 width="400px" height="400px" viewBox="0 0 400 400" enable-background="new 0 0 400 400" xml:space="preserve">
<g>
	<path fill="#0B77BD" d="M269.081,81.471c-19.254-11.986-37.414-16.71-55.58-28.698c-11.26-7.628-26.878-25.791-39.96-41.411
		c-2.542,25.064-10.168,35.236-18.887,42.501c-18.525,14.531-30.15,18.891-46.136,27.608
		c-13.438,6.901-86.453,50.493-86.453,144.213c0,93.721,78.829,162.739,166.37,162.739c87.545,0,163.468-63.571,163.468-159.833
		C351.903,132.327,280.706,88.735,269.081,81.471z"/>
	<path fill="#005A8D" d="M342.123,272.935c-75.27,23.385-151.073,45.049-227.348,64.986c-12.169,3.179-24.364,6.272-36.557,9.362
		c30.015,25.889,69.228,41.139,110.37,41.139c77.669,0,146.14-50.062,160.612-128.573
		C345.776,262.597,343.525,267.522,342.123,272.935z"/>
	<g>
		<path fill="#FFFFFF" d="M380.317,209.295c-2.273-1.156-3.817-4.91-5.849-5.676c-1.586-0.608-3.386,1.72-5.432,0.299
			c-3.043-2.108-2.637-8.01-5.358-9.82c-1.779-1.178-4.641,0.841-6.852-0.693c-2.148-1.499-1.878-4.783-2.079-6.547
			c-0.214-1.69-4.137-7.238-1.934-9.479c0.732-0.747,2.637,0.028,2.995-0.961c0.457-1.255-1.43-4.474-0.668-5.55
			c0.58-0.839,3.605-1.122,2.143-3.58c-1.475-2.472-6.411-3.606-7.482-6.262c-0.478-1.154,5.206-7.289,5.835-9.081
			c0.979-2.794,3.9-7.118,4.398-10.084c0.367-2.169-1.352-4.672-1.112-6.867c0.449-4.18,4.62-8.248,7.315-11.051
			c0,0-2.618-5.092-5.083-5.569c-2.587-0.502-5.714,1.747-8.31,1.248c-1.111-0.228-1.673-1.867-2.805-1.979
			c-0.011-0.003-3.947,1.265-3.947,1.265c-1.752-0.552-7.446-7.181-8.277-8.904c-1.103-2.226-1.775-12.059-3.225-13.411
			c-0.013-0.005-3.35-0.354-3.373-0.367c-0.006-0.003,0.165-2.913,0.148-2.924c-2.952-2.92-8.619,1.688-10.643,0.508
			c-2.502-1.48-3.508-7.945-8.214-8.935c-2.396-0.508-32.394,10.152-37.21,11.639c-55.901,17.233-112.102,33.479-168.564,48.728
			c-14.111,3.809-28.249,7.565-42.395,11.247c-2.237,0.584-12.383,4.723-14.157,3.661c-0.117-0.058-2.803-9.595-5.837-20.489
			c-5.302,5.339-13.555,13.793-18.427,16.295c-0.375,0.192-1.113,0.366-2.431,1.874c-3.103,3.581-6.93,6.301-10.017,9.777
			c-1.528,1.691-3.915,2.349-5.809,3.474c-0.831,0.502-1.693,1.075-2.539,1.595c9.155,36.191,20.796,81.679,27.358,108.217
			c4.49,18.129,8.976,36.266,13.459,54.391c0.462,1.817,4.489,18.797,4.686,18.904c0.195,0.132,15.006-3.732,16.612-4.128
			c15.808-3.972,31.615-8.019,47.385-12.138c76.275-19.938,152.079-41.602,227.349-64.986c2.645-10.212,8.272-18.765,19.201-14.022
			c1.103-1.829,2.456-3.941,2.885-4.417c2.947-3.27,9.122-4.713,11.929-8.107c0.684-0.84-0.431-9.671,3.135-8.698
			c0.093,0.018,0.105,0.059,0.161,0.085l1.251-1.491c0,0,0.862-0.772,1.317-1.144c2.034-1.794,1.623-3.938,3.057-6.036
			c1.462-2.167,11.523-10.383,10.546-12.074C393.737,214.061,383.492,210.932,380.317,209.295"/>
		<path fill="#005A8D" d="M50.648,357.251h-0.936l-0.668-0.441c-1.221-0.68-1.329-1.127-5.042-16.536
			c-0.508-2.108-0.901-3.74-1.027-4.235l-0.98-3.96c-4.159-16.814-8.32-33.635-12.484-50.45
			c-4.467-18.061-11.386-45.297-18.077-71.635c-3.182-12.523-6.356-25.019-9.278-36.567l-0.551-2.18l1.916-1.177
			c0.373-0.229,0.748-0.469,1.123-0.708c0.482-0.308,0.963-0.614,1.435-0.899c0.764-0.454,1.517-0.81,2.244-1.153
			c1.162-0.549,2.259-1.068,2.878-1.753c1.59-1.791,3.356-3.383,5.062-4.923c1.767-1.595,3.437-3.102,4.913-4.806
			c1.395-1.596,2.458-2.199,3.316-2.58c4.216-2.162,11.808-9.818,16.833-14.884l4.558-4.59l1.412,5.069
			c3.016,10.828,4.453,15.882,5.136,18.228c2.257-0.488,5.923-1.773,7.889-2.463c1.482-0.52,2.553-0.895,3.248-1.077
			c13.494-3.512,27.749-7.293,42.371-11.24c56.186-15.175,112.863-31.56,168.46-48.698c1.18-0.364,4.006-1.326,7.585-2.544
			c18.021-6.134,27.657-9.248,30.315-9.248c0.302,0,0.579,0.027,0.846,0.084c4.231,0.89,6.239,4.458,7.705,7.063
			c0.34,0.603,0.812,1.441,1.168,1.922c0.46-0.117,1.114-0.338,1.595-0.5c1.549-0.521,3.303-1.112,5.146-1.112
			c2.202,0,3.676,0.878,4.565,1.687c0.833,0.642,1.06,1.316,1.071,2.551c0.915,0.099,0.96,0.116,1.282,0.239l0.561,0.213l0.439,0.41
			c1.436,1.339,1.949,3.717,2.858,9.226c0.291,1.759,0.729,4.418,1.026,5.074c0.622,1.218,4.173,5.322,5.977,6.894
			c3.006-0.966,3.059-0.966,3.501-0.966l0.3,0.015c1.738,0.171,2.774,1.287,3.395,1.953c0.023,0.026,0.047,0.052,0.07,0.078
			c0.612-0.041,1.471-0.304,2.303-0.558c1.272-0.389,2.716-0.83,4.243-0.83c0.477,0,0.943,0.044,1.387,0.13
			c3.541,0.685,6.229,5.245,7.222,7.174l0.999,1.944l-2.037,2.117c-2.249,2.326-5.647,5.84-5.956,8.716
			c-0.049,0.448,0.22,1.336,0.457,2.121c0.418,1.382,0.939,3.103,0.63,4.93c-0.377,2.244-1.641,4.693-2.862,7.062
			c-0.69,1.339-1.343,2.604-1.665,3.523c-0.408,1.163-1.404,2.5-3.13,4.762c-0.607,0.795-1.491,1.953-2.079,2.816
			c0.568,0.425,1.356,0.893,1.912,1.223c1.684,0.999,3.593,2.133,4.685,3.963c0.996,1.673,0.911,3.064,0.666,3.938
			c-0.417,1.48-1.471,2.333-2.337,2.859c0.042,0.147,0.084,0.29,0.12,0.416c0.413,1.407,0.881,3.001,0.323,4.531
			c-0.671,1.854-2.266,2.367-3.373,2.519c0.271,1.027,0.963,2.523,1.308,3.269c0.582,1.258,1.042,2.252,1.165,3.221
			c0.047,0.408,0.073,0.837,0.099,1.3c0.059,1.027,0.156,2.745,0.695,3.121c0.069,0.048,0.298,0.054,0.393,0.054
			c0.348,0,0.788-0.061,1.256-0.126c0.584-0.082,1.247-0.173,1.94-0.173c1.241,0,2.289,0.293,3.202,0.897
			c2.231,1.484,3.034,4.034,3.741,6.284c0.424,1.346,0.899,2.859,1.525,3.454c0.167-0.054,0.412-0.148,0.592-0.217
			c0.71-0.272,1.594-0.611,2.662-0.611c0.582,0,1.145,0.103,1.676,0.307c1.812,0.682,3.068,2.287,4.178,3.701
			c0.643,0.82,1.442,1.84,1.962,2.104c0.799,0.411,2.3,1.007,3.89,1.637c6.298,2.495,10.882,4.479,12.509,7.295
			c1.837,3.178-1.57,6.441-7.214,11.846c-1.304,1.248-3.089,2.957-3.446,3.473c-0.353,0.517-0.533,1.101-0.763,1.84
			c-0.415,1.339-0.983,3.172-2.805,4.778l-0.091,0.076c-0.301,0.246-0.795,0.683-1.048,0.908l-2.629,3.133l-0.541-0.256
			c-0.133,0.963-0.189,2.182-0.221,2.838c-0.091,1.967-0.147,3.154-0.986,4.186c-1.847,2.233-4.488,3.627-7.044,4.974
			c-1.925,1.016-3.916,2.066-4.985,3.251c-0.225,0.275-1.282,1.867-2.536,3.948l-1.383,2.293l-2.456-1.065
			c-1.669-0.725-3.212-1.092-4.588-1.092c-5.825,0-8.889,7.109-10.434,13.074l-0.427,1.649l-1.627,0.505
			c-74.892,23.268-151.428,45.146-227.483,65.025c-15.498,4.048-31.449,8.134-47.413,12.145c-0.39,0.096-1.495,0.38-2.966,0.759
			C51.541,357.251,51.261,357.251,50.648,357.251z M8.634,174.077c2.769,10.939,5.747,22.662,8.731,34.409
			c6.694,26.348,13.615,53.592,18.086,71.672c4.164,16.814,8.325,33.637,12.484,50.45l0.975,3.94
			c0.123,0.484,0.524,2.146,1.041,4.291c0.739,3.067,2.049,8.501,2.859,11.73c3.088-0.759,8.108-2.05,10.683-2.712
			c1.501-0.386,2.629-0.676,3.012-0.771c15.932-4.002,31.865-8.084,47.343-12.127c75.427-19.716,151.322-41.396,225.618-64.452
			c3.882-13.17,10.733-16,15.899-16c1.447,0,2.957,0.229,4.509,0.683c0.694-1.094,1.464-2.251,1.909-2.744
			c1.797-1.994,4.277-3.302,6.676-4.566c1.765-0.931,3.581-1.889,4.715-2.962c0.022-0.324,0.041-0.734,0.057-1.069
			c0.135-2.88,0.407-8.73,4.725-9.256l0.534-0.589c0,0,0.864-0.772,1.368-1.188c0.485-0.443,0.652-0.933,0.975-1.972
			c0.305-0.981,0.683-2.202,1.547-3.467c0.653-0.969,1.982-2.259,4.274-4.454c1.451-1.389,3.86-3.696,5.133-5.194
			c-2.056-1.303-6.378-3.016-8.449-3.836c-1.81-0.717-3.371-1.336-4.424-1.879c-1.712-0.87-2.922-2.414-3.989-3.775
			c-0.382-0.487-0.913-1.165-1.295-1.539c-0.073,0.027-0.147,0.056-0.213,0.081c-0.732,0.28-1.733,0.664-2.941,0.664
			c-1.145,0-2.216-0.341-3.185-1.014c-2.419-1.676-3.307-4.498-4.021-6.765c-0.29-0.923-0.757-2.406-1.158-2.898
			c-0.268,0.006-0.645,0.059-1.044,0.114c-0.623,0.087-1.328,0.185-2.1,0.185c-1.501,0-2.772-0.376-3.888-1.15
			c-2.985-2.083-3.188-5.661-3.31-7.798c-0.017-0.287-0.03-0.556-0.053-0.795c-0.097-0.294-0.417-0.988-0.655-1.503
			c-1.298-2.805-3.47-7.5-0.433-10.588c0.534-0.545,1.142-0.857,1.723-1.037c-0.454-1.593-0.86-3.474,0.289-5.097
			c0.312-0.453,0.703-0.789,1.092-1.054c-0.509-0.358-1.122-0.722-1.633-1.025c-1.962-1.165-4.185-2.484-5.14-4.849
			c-0.938-2.266,0.662-4.361,3.565-8.166c0.803-1.052,2.016-2.642,2.248-3.146c0.434-1.247,1.182-2.696,1.973-4.23
			c0.96-1.86,2.047-3.969,2.267-5.274c0.069-0.413-0.22-1.371-0.452-2.14c-0.407-1.344-0.868-2.868-0.685-4.552
			c0.47-4.37,3.713-8.187,6.529-11.154c-0.718-1.044-1.47-1.909-1.91-2.141c-0.541-0.059-1.616,0.254-2.603,0.556
			c-1.274,0.39-2.719,0.831-4.251,0.831c-0.474,0-0.938-0.043-1.378-0.128c-1.3-0.266-2.164-1.023-2.734-1.611
			c-1.119,0.359-2.502,0.805-2.502,0.805l-0.928,0.299l-0.93-0.292c-3.002-0.945-9.211-8.62-10.114-10.494
			c-0.637-1.285-1.009-3.405-1.561-6.754c-0.248-1.502-0.621-3.767-0.971-5.129c-2.19-0.235-2.293-0.265-2.771-0.534
			c-1.577-0.843-1.617-2.317-1.561-3.491c-0.783,0.121-1.754,0.448-2.631,0.743c-1.374,0.463-2.672,0.9-3.984,0.9
			c-0.893,0-1.699-0.207-2.398-0.614c-1.694-1.002-2.697-2.785-3.667-4.508c-1.202-2.137-2.107-3.6-3.392-4.012
			c-3.128,0.382-20.614,6.334-28.168,8.905c-3.625,1.234-6.488,2.208-7.753,2.599c-55.665,17.16-112.414,33.565-168.669,48.758
			c-14.64,3.952-28.913,7.738-42.422,11.254c-0.451,0.118-1.576,0.512-2.767,0.93c-4.686,1.643-8.768,3.003-11.265,3.003
			c-0.907,0-1.668-0.171-2.319-0.523c-1.232-0.608-1.271-0.745-3.346-8.056c-0.728-2.564-1.625-5.758-2.604-9.261
			c-5.166,5.155-11.257,10.958-15.493,13.134c-0.099,0.051-0.211,0.103-0.34,0.16c-0.199,0.088-0.5,0.222-1.185,1.005
			c-1.714,1.979-3.603,3.683-5.43,5.331c-1.656,1.495-3.22,2.907-4.604,4.464c-1.456,1.611-3.243,2.456-4.82,3.202
			c-0.627,0.296-1.219,0.576-1.715,0.871C9.033,173.828,8.835,173.951,8.634,174.077z"/>
	</g>
	<g>
		<path fill="#F6B810" d="M180.766,150.729l8.111-2.182c3.527-0.949,7.297-0.997,10.689,0.829c3.39,1.833,6.321,5.551,8.016,11.86
			c1.692,6.31,1.004,10.919-1.015,14.205c-2.02,3.28-5.267,5.279-8.794,6.227l5.93,22.078l-8.109,2.178L180.766,150.729z
			 M195.552,173.401c2.479-0.663,3.936-1.539,4.49-3.055c0.578-1.445,0.264-3.531-0.565-6.612c-0.829-3.079-1.641-5.195-2.903-6.305
			c-1.265-1.113-3.004-1.286-5.48-0.623L195.552,173.401z"/>
		<path fill="#F6B810" d="M217.819,199.953l-6.493-57.436l9.911-2.663l23.167,52.957l-7.886,2.116l-4.53-10.857l-7.809,2.098
			l1.525,11.667L217.819,199.953z M221.555,159.011l-0.61-1.368l-0.448,0.123l0.157,1.488l2.351,18.053l5.562-1.493L221.555,159.011
			z"/>
	</g>
	<g>
		<path fill="#005A8D" d="M113.011,228.11l-14.83-55.199l6.385-1.716c7.512-2.019,11.971-1.607,15.276,2.014
			c3.233,3.641,5.39,10.471,8.296,21.284c2.905,10.816,4.44,17.73,3.464,22.498c-1.047,4.792-4.695,7.383-12.208,9.399
			L113.011,228.11z M118.939,217.814c2.78-0.745,4.279-1.467,4.377-4.391c0.033-1.379-0.189-3.414-0.818-6.061
			c-0.637-2.651-1.583-6.18-2.792-10.685c-1.214-4.507-2.159-8.036-2.938-10.644c-0.764-2.535-1.586-4.405-2.328-5.657
			c-1.535-2.404-3.192-2.284-5.968-1.536L118.939,217.814z"/>
		<path fill="#005A8D" d="M155.458,216.705l-10.46-22.153l-2.177,0.586l6.254,23.282l-8.114,2.177l-14.829-55.196l8.114-2.18
			c9.692-2.601,15.29,1.772,18.095,12.209c1.473,5.48,1.379,10.82-1.134,13.753l12.362,25.342L155.458,216.705z M140.802,187.627
			c1.127-0.301,2.589-0.857,3.508-2.228c0.918-1.376,1.349-3.663,0.299-7.572c-1.05-3.901-2.59-5.742-4.075-6.475
			c-1.481-0.728-3.003-0.396-4.129-0.096L140.802,187.627z"/>
		<path fill="#005A8D" d="M174.815,152.325l11.781,43.856c0.528,2.273,0.624,4.422,0.264,6.371c-0.274,1.686-0.942,3.391-2.14,4.921
			c-1.182,1.605-3.027,2.828-5.731,3.554c-2.702,0.73-4.986,0.614-6.812-0.184c-1.806-0.724-3.165-1.887-4.241-3.207
			c-1.292-1.505-2.289-3.41-2.966-5.645l-11.782-43.856l8.11-2.18l11.784,43.858c0.421,1.578,1.081,2.526,2.054,3.154
			c0.478,0.275,1.062,0.354,1.737,0.173c1.428-0.385,1.858-1.465,1.86-2.674c0.084-0.584-0.025-1.282-0.247-2.108l-11.781-43.854
			L174.815,152.325z"/>
		<path fill="#005A8D" d="M235.315,136.073l8.111-2.181l12.811,47.689l10.739-2.885l2.017,7.508l-18.85,5.063L235.315,136.073z"/>
		<path fill="#005A8D" d="M157.405,273.277l2.832,10.557c0.738,3.156,0.869,6.148,0.363,8.861c-0.379,2.342-1.308,4.715-2.977,6.845
			c-1.642,2.233-4.208,3.932-7.967,4.94c-3.763,1.011-6.938,0.856-9.48-0.254c-2.509-1.006-4.4-2.622-5.901-4.461
			c-1.797-2.09-3.181-4.748-4.125-7.85l-12.153-45.236c-0.711-3.062-0.843-6.048-0.338-8.762c0.382-2.34,1.175-4.793,2.843-6.923
			c1.672-2.13,4.316-3.961,8.078-4.976c3.761-1.007,6.857-0.716,9.372,0.288c2.511,1.006,4.53,2.704,6.035,4.538
			c1.797,2.096,3.18,4.746,4.097,7.751l2.833,10.55l-10.551,2.832l-2.833-10.547c-0.561-2.091-1.478-3.414-2.964-4.354
			c-0.662-0.385-1.685-0.446-2.834-0.14c-1.987,0.537-2.533,2.25-2.695,3.747c-0.088,0.923,0.065,1.892,0.24,2.965l12.152,45.234
			c0.694,2.168,1.71,3.459,3.065,4.325c0.666,0.384,1.478,0.501,2.419,0.248c2.403-0.643,3.007-2.151,3.108-3.861
			c0.113-0.815-0.032-1.78-0.338-2.929l-2.838-10.553L157.405,273.277z"/>
		<path fill="#005A8D" d="M168.148,298.616l-9.03-79.896l13.789-3.703l32.223,73.667l-10.964,2.946l-6.304-15.108L177,279.44
			l2.121,16.232L168.148,298.616z M173.347,241.666l-0.847-1.903l-0.63,0.17l0.225,2.067l3.269,25.115l7.732-2.079L173.347,241.666z
			"/>
		<path fill="#005A8D" d="M229.071,282.254l-20.172-46.329l-1.284-3.125l-0.626,0.17l13.834,51.499l-10.449,2.808l-20.628-76.78
			l13.791-3.708l16.117,33.306l1.617,3.935l0.208-0.054l-0.57-4.218l-2.741-36.896l13.787-3.705l20.625,76.782l-10.443,2.806
			l-13.832-51.5l-0.635,0.171l0.455,3.344l5.753,50.202L229.071,282.254z"/>
		<path fill="#005A8D" d="M240.344,196.899l11.278-3.028c4.911-1.318,10.158-1.387,14.871,1.149
			c4.718,2.547,8.794,7.723,11.151,16.498c2.362,8.779,1.396,15.192-1.412,19.761c-2.805,4.564-7.321,7.343-12.235,8.663
			l8.251,30.709l-11.281,3.031L240.344,196.899z M260.909,228.448c3.451-0.927,5.478-2.145,6.25-4.254
			c0.809-2.009,0.365-4.91-0.783-9.194c-1.154-4.281-2.286-7.231-4.043-8.775c-1.755-1.547-4.173-1.79-7.625-0.863L260.909,228.448z
			"/>
	</g>
</g>
</svg>
